<?xml version="1.0" encoding="iso-8859-1"?>
<!-- Generator: Adobe Illustrator 16.0.0, SVG Export Plug-In . SVG Version: 6.00 Build 0)  -->
<!DOCTYPE svg PUBLIC "-//W3C//DTD SVG 1.1//EN" "http://www.w3.org/Graphics/SVG/1.1/DTD/svg11.dtd">
<svg version="1.1" id="Capa_1" xmlns="http://www.w3.org/2000/svg" xmlns:xlink="http://www.w3.org/1999/xlink" x="0px" y="0px"
	 viewBox="0 0 83.818 83.818" style="enable-background:new 0 0 83.818 83.818;"
	 xml:space="preserve">
	<g>
		<polygon points="60.621,42.934 63.438,43.069 64.076,42.432 73.665,32.844 70.714,29.891 60.488,40.117 		"/>
		<path d="M41.909,83.818c23.146,0,41.908-18.764,41.908-41.908C83.817,18.764,65.056,0,41.909,0C18.764,0,0.001,18.764,0.001,41.91
			C0.001,65.055,18.764,83.818,41.909,83.818z M19.364,25.767c0-0.553,0.448-1,1-1h46.354c0.553,0,1,0.447,1,1v4.29l2.289-2.287
			c0.391-0.391,1.022-0.391,1.414,0l4.365,4.366c0.391,0.391,0.391,1.023,0,1.414l-8.068,8.067v20.671c0,0.554-0.447,1-1,1H20.364
			c-0.552,0-1-0.446-1-1V25.767z"/>
		<path d="M63.027,34.748v-1.509H24.054v25.264h38.973v-13.45l-3.408-0.162c-0.515-0.024-0.927-0.438-0.952-0.951l-0.197-4.168
			c-0.014-0.281,0.092-0.556,0.291-0.755L63.027,34.748z M56.544,54.122H26.278c-0.552,0-1-0.446-1-1c0-0.553,0.448-1,1-1h30.266
			c0.553,0,1,0.447,1,1C57.544,53.676,57.097,54.122,56.544,54.122z M56.544,49.633H26.278c-0.552,0-1-0.447-1-1
			c0-0.554,0.448-1,1-1h30.266c0.553,0,1,0.446,1,1C57.544,49.186,57.097,49.633,56.544,49.633z M56.544,45.141H26.278
			c-0.552,0-1-0.446-1-1c0-0.553,0.448-1,1-1h30.266c0.553,0,1,0.447,1,1C57.544,44.694,57.097,45.141,56.544,45.141z
			 M56.544,40.651H26.278c-0.552,0-1-0.447-1-1c0-0.553,0.448-1,1-1h30.266c0.553,0,1,0.447,1,1
			C57.544,40.204,57.097,40.651,56.544,40.651z M56.544,37.283H26.278c-0.552,0-1-0.447-1-1c0-0.553,0.448-1,1-1h30.266
			c0.553,0,1,0.447,1,1C57.544,36.836,57.097,37.283,56.544,37.283z"/>
		<path d="M65.718,43.618l-0.69,0.69v15.193c0,0.553-0.448,1-1,1H23.054c-0.552,0-1-0.447-1-1V32.239c0-0.553,0.448-1,1-1h40.973
			c0.552,0,1,0.447,1,1v0.509l0.69-0.69v-5.29H21.364v34.521h44.354V43.618z M62.998,28.034h1.075c0.552,0,1,0.447,1,1
			c0,0.553-0.448,1-1,1h-1.075c-0.552,0-1-0.447-1-1C61.998,28.481,62.446,28.034,62.998,28.034z M58.394,28.034h1.074
			c0.551,0,1,0.447,1,1c0,0.553-0.449,1-1,1h-1.074c-0.553,0-1-0.447-1-1C57.394,28.481,57.841,28.034,58.394,28.034z
			 M53.788,28.034h1.074c0.552,0,1,0.447,1,1c0,0.553-0.448,1-1,1h-1.074c-0.552,0-1-0.447-1-1
			C52.788,28.481,53.236,28.034,53.788,28.034z"/>
	</g>
</svg>
