<?xml version="1.0" encoding="iso-8859-1"?>
<!-- Generator: Adobe Illustrator 16.0.0, SVG Export Plug-In . SVG Version: 6.00 Build 0)  -->
<!DOCTYPE svg PUBLIC "-//W3C//DTD SVG 1.1//EN" "http://www.w3.org/Graphics/SVG/1.1/DTD/svg11.dtd">
<svg version="1.1" id="Capa_1" xmlns="http://www.w3.org/2000/svg" xmlns:xlink="http://www.w3.org/1999/xlink" x="0px" y="0px"
	 width="83.818px" height="83.818px" viewBox="0 0 83.818 83.818" style="enable-background:new 0 0 83.818 83.818;"
	 xml:space="preserve">
<g>
	<g>
		<rect x="24.779" y="37.565" width="28.222" height="3.842"/>
		<polygon points="58.579,37.43 57.759,38.25 57.899,41.244 60.894,41.387 61.524,40.755 71.594,30.687 68.459,27.55 		"/>
		<path d="M60.489,32.688v-1.632H19.787v26.415h40.702V43.369l-3.592-0.17c-0.516-0.024-0.928-0.438-0.953-0.953l-0.205-4.344
			c-0.014-0.281,0.093-0.555,0.291-0.754L60.489,32.688z M34.333,54.895c0,0.553-0.448,1-1,1h-9.554c-0.552,0-1-0.447-1-1V46.51
			c0-0.553,0.448-1,1-1h9.554c0.552,0,1,0.447,1,1V54.895z M54.001,52.97H37.622c-0.552,0-1-0.446-1-1c0-0.553,0.448-1,1-1h16.379
			c0.552,0,1,0.447,1,1C55.001,52.523,54.554,52.97,54.001,52.97z M54.001,47.51H37.622c-0.552,0-1-0.447-1-1s0.448-1,1-1h16.379
			c0.552,0,1,0.447,1,1S54.554,47.51,54.001,47.51z M55.001,42.406c0,0.554-0.448,1-1,1H23.779c-0.552,0-1-0.446-1-1v-5.841
			c0-0.553,0.448-1,1-1h30.222c0.552,0,1,0.447,1,1V42.406z"/>
		<rect x="24.779" y="47.51" width="7.554" height="6.385"/>
		<path d="M62.489,58.472c0,0.554-0.447,1-1,1H18.787c-0.552,0-1-0.446-1-1V30.057c0-0.553,0.448-1,1-1h42.702c0.553,0,1,0.447,1,1
			v0.633l0.807-0.805v-5.573H16.982v36.064h46.313V41.813l-0.806,0.806V58.472L62.489,58.472z M60.418,25.716h1.12
			c0.552,0,1,0.447,1,1c0,0.553-0.448,1-1,1h-1.12c-0.552,0-1-0.447-1-1C59.418,26.163,59.866,25.716,60.418,25.716z M55.619,25.716
			h1.12c0.552,0,1,0.447,1,1c0,0.553-0.448,1-1,1h-1.12c-0.552,0-1-0.447-1-1C54.619,26.163,55.067,25.716,55.619,25.716z
			 M50.817,25.716h1.121c0.551,0,1,0.447,1,1c0,0.553-0.449,1-1,1h-1.121c-0.551,0-1-0.447-1-1
			C49.817,26.163,50.267,25.716,50.817,25.716z"/>
		<path d="M41.909,0C18.764,0,0.001,18.764,0.001,41.91c0,23.145,18.764,41.909,41.908,41.909c23.146,0,41.908-18.765,41.908-41.909
			C83.817,18.764,65.056,0,41.909,0z M73.715,31.394l-8.42,8.42v21.563c0,0.553-0.448,1-1,1H15.982c-0.552,0-1-0.447-1-1V23.312
			c0-0.553,0.448-1,1-1h48.313c0.552,0,1,0.447,1,1v4.573l2.457-2.456c0.188-0.188,0.442-0.293,0.707-0.293s0.521,0.105,0.707,0.293
			l4.549,4.551C74.106,30.37,74.106,31.003,73.715,31.394z"/>
	</g>
</g>
<g>
</g>
<g>
</g>
<g>
</g>
<g>
</g>
<g>
</g>
<g>
</g>
<g>
</g>
<g>
</g>
<g>
</g>
<g>
</g>
<g>
</g>
<g>
</g>
<g>
</g>
<g>
</g>
<g>
</g>
</svg>
